<svg xmlns="http://www.w3.org/2000/svg" width="1200" height="1890" viewBox="0 0 1200 1890" role="img" aria-labelledby="title desc"><title id="title">39 pre-registered experiments and their verdicts</title><desc id="desc">Tiles ordered by available date. Each tile shows its source verdict code and date.</desc><style>text{font-family:Inter,"Segoe UI",system-ui,-apple-system,sans-serif} .mono{font-family:"JetBrains Mono",ui-monospace,Consolas,monospace}</style><rect x="0" y="0" width="1200" height="1890" fill="#050d0a"/><text x="56" y="49" font-size="13" fill="#2fe39a" letter-spacing="2">MIGANCORE / OPEN LAB NOTEBOOK</text><text x="56" y="104" font-size="34" fill="#edf7f2" >39 pre-registered experiments and their verdicts</text><text x="56" y="151" font-size="18" fill="#a8bbb2" >A verdict is a decision under locked criteria, including a decision not to claim.</text><rect x="56" y="180" width="10" height="10" rx="8" fill="#2fe39a" /><text x="78" y="190" font-size="16" fill="#a8bbb2" >10 Pass</text><rect x="331" y="180" width="10" height="10" rx="8" fill="#ff8f85" /><text x="353" y="190" font-size="16" fill="#a8bbb2" >6 Fail</text><rect x="606" y="180" width="10" height="10" rx="8" fill="#d9bd59" /><text x="628" y="190" font-size="16" fill="#a8bbb2" >16 Neutral</text><rect x="881" y="180" width="10" height="10" rx="8" fill="#b58aff" /><text x="903" y="190" font-size="16" fill="#a8bbb2" >7 Not run / not judged</text><rect x="56" y="231" width="260" height="130" rx="8" fill="#0d1f1a" stroke="#ff8f85" stroke-opacity="0.45"/><rect x="56" y="231" width="4" height="130" rx="8" fill="#ff8f85" /><text x="71" y="258" font-size="14" fill="#edf7f2" >V15</text><text x="71" y="305" font-size="12" fill="#ff8f85" >FAIL</text><text x="71" y="344" font-size="11" fill="#a8bbb2" class="mono">2026-08-28</text><rect x="332" y="231" width="260" height="130" rx="8" fill="#0d1f1a" stroke="#2fe39a" stroke-opacity="0.45"/><rect x="332" y="231" width="4" height="130" rx="8" fill="#2fe39a" /><text x="347" y="258" font-size="14" fill="#edf7f2" >H-PENGUSUL</text><text x="347" y="305" font-size="12" fill="#2fe39a" >PASS</text><text x="347" y="344" font-size="11" fill="#a8bbb2" class="mono">2026-08-29</text><rect x="608" y="231" width="260" height="130" rx="8" fill="#0d1f1a" stroke="#ff8f85" stroke-opacity="0.45"/><rect x="608" y="231" width="4" height="130" rx="8" fill="#ff8f85" /><text x="623" y="258" font-size="14" fill="#edf7f2" >H-DEKODE</text><text x="623" y="305" font-size="12" fill="#ff8f85" >GEMINI&apos;S CLAIM NOT</text><text x="623" y="321" font-size="12" fill="#ff8f85" >SUPPORTED</text><text x="623" y="344" font-size="11" fill="#a8bbb2" class="mono">2026-08-30</text><rect x="884" y="231" width="260" height="130" rx="8" fill="#0d1f1a" stroke="#2fe39a" stroke-opacity="0.45"/><rect x="884" y="231" width="4" height="130" rx="8" fill="#2fe39a" /><text x="899" y="258" font-size="14" fill="#edf7f2" >H-JUJUR</text><text x="899" y="305" font-size="12" fill="#2fe39a" >PASS</text><text x="899" y="344" font-size="11" fill="#a8bbb2" class="mono">2026-08-30</text><rect x="56" y="377" width="260" height="130" rx="8" fill="#0d1f1a" stroke="#2fe39a" stroke-opacity="0.45"/><rect x="56" y="377" width="4" height="130" rx="8" fill="#2fe39a" /><text x="71" y="404" font-size="14" fill="#edf7f2" >H-KONTRAS</text><text x="71" y="451" font-size="12" fill="#2fe39a" >PASS</text><text x="71" y="490" font-size="11" fill="#a8bbb2" class="mono">2026-08-30</text><rect x="332" y="377" width="260" height="130" rx="8" fill="#0d1f1a" stroke="#2fe39a" stroke-opacity="0.45"/><rect x="332" y="377" width="4" height="130" rx="8" fill="#2fe39a" /><text x="347" y="404" font-size="14" fill="#edf7f2" >H-PETAK40</text><text x="347" y="451" font-size="12" fill="#2fe39a" >PASS</text><text x="347" y="490" font-size="11" fill="#a8bbb2" class="mono">2026-08-30</text><rect x="608" y="377" width="260" height="130" rx="8" fill="#0d1f1a" stroke="#ff8f85" stroke-opacity="0.45"/><rect x="608" y="377" width="4" height="130" rx="8" fill="#ff8f85" /><text x="623" y="404" font-size="14" fill="#edf7f2" >V16-JUJUR</text><text x="623" y="451" font-size="12" fill="#ff8f85" >FAIL</text><text x="623" y="490" font-size="11" fill="#a8bbb2" class="mono">2026-08-31</text><rect x="884" y="377" width="260" height="130" rx="8" fill="#0d1f1a" stroke="#b58aff" stroke-opacity="0.45"/><rect x="884" y="377" width="4" height="130" rx="8" fill="#b58aff" /><text x="899" y="404" font-size="14" fill="#edf7f2" >V17-RLVR</text><text x="899" y="451" font-size="12" fill="#b58aff" >NOT YET JUDGED</text><text x="899" y="490" font-size="11" fill="#a8bbb2" class="mono">2026-09-01</text><rect x="56" y="523" width="260" height="130" rx="8" fill="#0d1f1a" stroke="#d9bd59" stroke-opacity="0.45"/><rect x="56" y="523" width="4" height="130" rx="8" fill="#d9bd59" /><text x="71" y="550" font-size="14" fill="#edf7f2" >GERBANG-JEBAKAN</text><text x="71" y="597" font-size="12" fill="#d9bd59" >PASS</text><text x="71" y="636" font-size="11" fill="#a8bbb2" class="mono">2026-09-02</text><rect x="332" y="523" width="260" height="130" rx="8" fill="#0d1f1a" stroke="#d9bd59" stroke-opacity="0.45"/><rect x="332" y="523" width="4" height="130" rx="8" fill="#d9bd59" /><text x="347" y="550" font-size="14" fill="#edf7f2" >PAPAN-N5</text><text x="347" y="597" font-size="12" fill="#d9bd59" >P1 NOISE</text><text x="347" y="636" font-size="11" fill="#a8bbb2" class="mono">2026-09-02</text><rect x="608" y="523" width="260" height="130" rx="8" fill="#0d1f1a" stroke="#ff8f85" stroke-opacity="0.45"/><rect x="608" y="523" width="4" height="130" rx="8" fill="#ff8f85" /><text x="623" y="550" font-size="14" fill="#edf7f2" >L2B-RETRIEVAL</text><text x="623" y="597" font-size="12" fill="#ff8f85" >VOID</text><text x="623" y="636" font-size="11" fill="#a8bbb2" class="mono">2026-09-09</text><rect x="884" y="523" width="260" height="130" rx="8" fill="#0d1f1a" stroke="#b58aff" stroke-opacity="0.45"/><rect x="884" y="523" width="4" height="130" rx="8" fill="#b58aff" /><text x="899" y="550" font-size="14" fill="#edf7f2" >A6-TANYA</text><text x="899" y="597" font-size="12" fill="#b58aff" >NOT RUN</text><text x="899" y="636" font-size="11" fill="#a8bbb2" class="mono">2026-09-10 · lock</text><rect x="56" y="669" width="260" height="130" rx="8" fill="#0d1f1a" stroke="#b58aff" stroke-opacity="0.45"/><rect x="56" y="669" width="4" height="130" rx="8" fill="#b58aff" /><text x="71" y="696" font-size="14" fill="#edf7f2" >A6B-MENOLAK</text><text x="71" y="743" font-size="12" fill="#b58aff" >NOT RUN</text><text x="71" y="782" font-size="11" fill="#a8bbb2" class="mono">2026-09-10 · lock</text><rect x="332" y="669" width="260" height="130" rx="8" fill="#0d1f1a" stroke="#d9bd59" stroke-opacity="0.45"/><rect x="332" y="669" width="4" height="130" rx="8" fill="#d9bd59" /><text x="347" y="696" font-size="14" fill="#edf7f2" >H-MOGRPO</text><text x="347" y="743" font-size="12" fill="#d9bd59" >CANNOT BE JUDGED</text><text x="347" y="782" font-size="11" fill="#a8bbb2" class="mono">2026-09-10</text><rect x="608" y="669" width="260" height="130" rx="8" fill="#0d1f1a" stroke="#b58aff" stroke-opacity="0.45"/><rect x="608" y="669" width="4" height="130" rx="8" fill="#b58aff" /><text x="623" y="696" font-size="14" fill="#edf7f2" >H-PANCI</text><text x="623" y="743" font-size="12" fill="#b58aff" >NEVER RUN</text><text x="623" y="782" font-size="11" fill="#a8bbb2" class="mono">2026-09-10</text><rect x="884" y="669" width="260" height="130" rx="8" fill="#0d1f1a" stroke="#2fe39a" stroke-opacity="0.45"/><rect x="884" y="669" width="4" height="130" rx="8" fill="#2fe39a" /><text x="899" y="696" font-size="14" fill="#edf7f2" >H4-KAMUS</text><text x="899" y="743" font-size="12" fill="#2fe39a" >ACCEPTED</text><text x="899" y="782" font-size="11" fill="#a8bbb2" class="mono">2026-09-10</text><rect x="56" y="815" width="260" height="130" rx="8" fill="#0d1f1a" stroke="#d9bd59" stroke-opacity="0.45"/><rect x="56" y="815" width="4" height="130" rx="8" fill="#d9bd59" /><text x="71" y="842" font-size="14" fill="#edf7f2" >L2C-P</text><text x="71" y="889" font-size="12" fill="#d9bd59" >CRITERIA UNSATISFIABLE</text><text x="71" y="928" font-size="11" fill="#a8bbb2" class="mono">2026-09-10</text><rect x="332" y="815" width="260" height="130" rx="8" fill="#0d1f1a" stroke="#d9bd59" stroke-opacity="0.45"/><rect x="332" y="815" width="4" height="130" rx="8" fill="#d9bd59" /><text x="347" y="842" font-size="14" fill="#edf7f2" >L2C-P2</text><text x="347" y="889" font-size="12" fill="#d9bd59" >NOT A WIN</text><text x="347" y="928" font-size="11" fill="#a8bbb2" class="mono">2026-09-10</text><rect x="608" y="815" width="260" height="130" rx="8" fill="#0d1f1a" stroke="#d9bd59" stroke-opacity="0.45"/><rect x="608" y="815" width="4" height="130" rx="8" fill="#d9bd59" /><text x="623" y="842" font-size="14" fill="#edf7f2" >V13</text><text x="623" y="889" font-size="12" fill="#d9bd59" >PARTIAL PASS</text><text x="623" y="928" font-size="11" fill="#a8bbb2" class="mono">2026-09-10</text><rect x="884" y="815" width="260" height="130" rx="8" fill="#0d1f1a" stroke="#2fe39a" stroke-opacity="0.45"/><rect x="884" y="815" width="4" height="130" rx="8" fill="#2fe39a" /><text x="899" y="842" font-size="14" fill="#edf7f2" >V14</text><text x="899" y="889" font-size="12" fill="#2fe39a" >PASS</text><text x="899" y="928" font-size="11" fill="#a8bbb2" class="mono">2026-09-10</text><rect x="56" y="961" width="260" height="130" rx="8" fill="#0d1f1a" stroke="#d9bd59" stroke-opacity="0.45"/><rect x="56" y="961" width="4" height="130" rx="8" fill="#d9bd59" /><text x="71" y="988" font-size="14" fill="#edf7f2" >K1-PENILAI-TINDAKAN</text><text x="71" y="1035" font-size="12" fill="#d9bd59" >NOT A WIN</text><text x="71" y="1074" font-size="11" fill="#a8bbb2" class="mono">2026-09-11</text><rect x="332" y="961" width="260" height="130" rx="8" fill="#0d1f1a" stroke="#2fe39a" stroke-opacity="0.45"/><rect x="332" y="961" width="4" height="130" rx="8" fill="#2fe39a" /><text x="347" y="988" font-size="14" fill="#edf7f2" >A3-JANGKAR</text><text x="347" y="1035" font-size="12" fill="#2fe39a" >COMPLETED</text><text x="347" y="1074" font-size="11" fill="#a8bbb2" class="mono">2026-09-15</text><rect x="608" y="961" width="260" height="130" rx="8" fill="#0d1f1a" stroke="#d9bd59" stroke-opacity="0.45"/><rect x="608" y="961" width="4" height="130" rx="8" fill="#d9bd59" /><text x="623" y="988" font-size="14" fill="#edf7f2" >H-RAGU</text><text x="623" y="1035" font-size="12" fill="#d9bd59" >INCONCLUSIVE</text><text x="623" y="1074" font-size="11" fill="#a8bbb2" class="mono">2026-09-15</text><rect x="884" y="961" width="260" height="130" rx="8" fill="#0d1f1a" stroke="#d9bd59" stroke-opacity="0.45"/><rect x="884" y="961" width="4" height="130" rx="8" fill="#d9bd59" /><text x="899" y="988" font-size="14" fill="#edf7f2" >H-ARAH</text><text x="899" y="1035" font-size="12" fill="#d9bd59" >ROUTING CARRIES IT</text><text x="899" y="1074" font-size="11" fill="#a8bbb2" class="mono">2026-09-18</text><rect x="56" y="1107" width="260" height="130" rx="8" fill="#0d1f1a" stroke="#2fe39a" stroke-opacity="0.45"/><rect x="56" y="1107" width="4" height="130" rx="8" fill="#2fe39a" /><text x="71" y="1134" font-size="14" fill="#edf7f2" >GERBANG-ON</text><text x="71" y="1181" font-size="12" fill="#2fe39a" >INSTALL_ON</text><text x="71" y="1220" font-size="11" fill="#a8bbb2" class="mono">2026-09-21</text><rect x="332" y="1107" width="260" height="130" rx="8" fill="#0d1f1a" stroke="#2fe39a" stroke-opacity="0.45"/><rect x="332" y="1107" width="4" height="130" rx="8" fill="#2fe39a" /><text x="347" y="1134" font-size="14" fill="#edf7f2" >A4-BARU</text><text x="347" y="1181" font-size="12" fill="#2fe39a" >INSTALLED</text><text x="347" y="1220" font-size="11" fill="#a8bbb2" class="mono">2026-09-23</text><rect x="608" y="1107" width="260" height="130" rx="8" fill="#0d1f1a" stroke="#ff8f85" stroke-opacity="0.45"/><rect x="608" y="1107" width="4" height="130" rx="8" fill="#ff8f85" /><text x="623" y="1134" font-size="14" fill="#edf7f2" >E1-LATENSI-NPC</text><text x="623" y="1181" font-size="12" fill="#ff8f85" >Q_MODEL</text><text x="623" y="1220" font-size="11" fill="#a8bbb2" class="mono">2026-09-23</text><rect x="884" y="1107" width="260" height="130" rx="8" fill="#0d1f1a" stroke="#ff8f85" stroke-opacity="0.45"/><rect x="884" y="1107" width="4" height="130" rx="8" fill="#ff8f85" /><text x="899" y="1134" font-size="14" fill="#edf7f2" >E1B-RIWAYAT</text><text x="899" y="1181" font-size="12" fill="#ff8f85" >Q_MODEL</text><text x="899" y="1220" font-size="11" fill="#a8bbb2" class="mono">2026-09-23</text><rect x="56" y="1253" width="260" height="130" rx="8" fill="#0d1f1a" stroke="#2fe39a" stroke-opacity="0.45"/><rect x="56" y="1253" width="4" height="130" rx="8" fill="#2fe39a" /><text x="71" y="1280" font-size="14" fill="#edf7f2" >E2-KEJUJURAN-NPC</text><text x="71" y="1327" font-size="12" fill="#2fe39a" >Q_HONEST</text><text x="71" y="1366" font-size="11" fill="#a8bbb2" class="mono">2026-09-23</text><rect x="332" y="1253" width="260" height="130" rx="8" fill="#0d1f1a" stroke="#d9bd59" stroke-opacity="0.45"/><rect x="332" y="1253" width="4" height="130" rx="8" fill="#d9bd59" /><text x="347" y="1280" font-size="14" fill="#edf7f2" >E2A-BOBOT-ATAU-PARAGRAF</text><text x="347" y="1327" font-size="12" fill="#d9bd59" >INSTRUMENT_INVALID</text><text x="347" y="1366" font-size="11" fill="#a8bbb2" class="mono">2026-09-23</text><rect x="608" y="1253" width="260" height="130" rx="8" fill="#0d1f1a" stroke="#d9bd59" stroke-opacity="0.45"/><rect x="608" y="1253" width="4" height="130" rx="8" fill="#d9bd59" /><text x="623" y="1280" font-size="14" fill="#edf7f2" >E2A2-VALIDASI-BERSTRATA</text><text x="623" y="1327" font-size="12" fill="#d9bd59" >INSTRUMENT_INVALID</text><text x="623" y="1366" font-size="11" fill="#a8bbb2" class="mono">2026-09-23</text><rect x="884" y="1253" width="260" height="130" rx="8" fill="#0d1f1a" stroke="#d9bd59" stroke-opacity="0.45"/><rect x="884" y="1253" width="4" height="130" rx="8" fill="#d9bd59" /><text x="899" y="1280" font-size="14" fill="#edf7f2" >A3I-JANGKAR-INSTRUCT</text><text x="899" y="1327" font-size="12" fill="#d9bd59" >INSTRUMENT_INVALID</text><text x="899" y="1366" font-size="11" fill="#a8bbb2" class="mono">2026-09-24</text><rect x="56" y="1399" width="260" height="130" rx="8" fill="#0d1f1a" stroke="#d9bd59" stroke-opacity="0.45"/><rect x="56" y="1399" width="4" height="130" rx="8" fill="#d9bd59" /><text x="71" y="1426" font-size="14" fill="#edf7f2" >A3I-ULANG</text><text x="71" y="1473" font-size="12" fill="#d9bd59" >INVALID_EVASION</text><text x="71" y="1512" font-size="11" fill="#a8bbb2" class="mono">2026-09-25</text><rect x="332" y="1399" width="260" height="130" rx="8" fill="#0d1f1a" stroke="#d9bd59" stroke-opacity="0.45"/><rect x="332" y="1399" width="4" height="130" rx="8" fill="#d9bd59" /><text x="347" y="1426" font-size="14" fill="#edf7f2" >SB1-SELEKSI-BASE</text><text x="347" y="1473" font-size="12" fill="#d9bd59" >KEEP_Q</text><text x="347" y="1512" font-size="11" fill="#a8bbb2" class="mono">2026-09-26</text><rect x="608" y="1399" width="260" height="130" rx="8" fill="#0d1f1a" stroke="#d9bd59" stroke-opacity="0.45"/><rect x="608" y="1399" width="4" height="130" rx="8" fill="#d9bd59" /><text x="623" y="1426" font-size="14" fill="#edf7f2" >H-ALUR</text><text x="623" y="1473" font-size="12" fill="#d9bd59" >STOPPED</text><text x="623" y="1512" font-size="11" fill="#a8bbb2" class="mono">2026-09-27</text><rect x="884" y="1399" width="260" height="130" rx="8" fill="#0d1f1a" stroke="#d9bd59" stroke-opacity="0.45"/><rect x="884" y="1399" width="4" height="130" rx="8" fill="#d9bd59" /><text x="899" y="1426" font-size="14" fill="#edf7f2" >GERBANG-S1</text><text x="899" y="1473" font-size="12" fill="#d9bd59" >STOPPED</text><text x="899" y="1512" font-size="11" fill="#a8bbb2" class="mono">2026-09-28</text><rect x="56" y="1545" width="260" height="130" rx="8" fill="#0d1f1a" stroke="#b58aff" stroke-opacity="0.45"/><rect x="56" y="1545" width="4" height="130" rx="8" fill="#b58aff" /><text x="71" y="1572" font-size="14" fill="#edf7f2" >D1-NPC-SPESIALIS</text><text x="71" y="1619" font-size="12" fill="#b58aff" >POSTPONED</text><text x="71" y="1658" font-size="11" fill="#a8bbb2" class="mono">Undated</text><rect x="332" y="1545" width="260" height="130" rx="8" fill="#0d1f1a" stroke="#b58aff" stroke-opacity="0.45"/><rect x="332" y="1545" width="4" height="130" rx="8" fill="#b58aff" /><text x="347" y="1572" font-size="14" fill="#edf7f2" >E5-PASANG</text><text x="347" y="1619" font-size="12" fill="#b58aff" >NOT RUN</text><text x="347" y="1658" font-size="11" fill="#a8bbb2" class="mono">Undated</text><rect x="608" y="1545" width="260" height="130" rx="8" fill="#0d1f1a" stroke="#b58aff" stroke-opacity="0.45"/><rect x="608" y="1545" width="4" height="130" rx="8" fill="#b58aff" /><text x="623" y="1572" font-size="14" fill="#edf7f2" >V18</text><text x="623" y="1619" font-size="12" fill="#b58aff" >NOT RUN</text><text x="623" y="1658" font-size="11" fill="#a8bbb2" class="mono">Undated</text><text x="56" y="1736" font-size="15" fill="#a8bbb2" >Date order; lock date used when no verdict date is given. Undated entries appear last.</text><line x1="56" y1="1818" x2="1144" y2="1818" stroke="#47d69933" /><text x="56" y="1797" font-size="16" fill="#edf7f2" >Neutral includes void instruments and experiments stopped before they were run.</text><text x="56" y="1852" font-size="12" fill="#a8bbb2" >MiganCore open release · source: migancore-public.en.json → preRegistrations, counts.verdictStates</text></svg>